<svg xmlns="http://www.w3.org/2000/svg" version="1.1" xmlns:xlink="http://www.w3.org/1999/xlink" width="2000" height="135" viewBox="0 0 2000 135"><svg xml:space="preserve" width="2000" height="135" data-version="2" data-id="lg_yvHsizRkOWqjHztM2P" viewBox="0 0 404 135" x="0" y="0"><rect width="100%" height="100%" fill="transparent"></rect><path fill="#272727" d="m158.82 59.61-16.55 46.23-27.47-73.63h9.19l16.15 42.75q.87 2.22 1.42 4.24.55 2.02 1.19 4.79.63-2.77 1.23-4.79.59-2.02 1.38-4.24l16.31-45.12 16.23 45.12q.71 1.98 1.38 4 .68 2.02 1.23 5.03.63-3.01 1.27-5.03.63-2.02 1.42-4l16.15-42.75h8.55l-27.39 73.63-16.47-46.23q-.71-2.06-1.34-4-.64-1.94-1.27-4.95-.63 3.01-1.27 4.95-.63 1.94-1.34 4"></path><rect width="93.1" height="76" x="-46.55" y="-38" fill="none" rx="0" ry="0" transform="translate(161.85 68.34)"></rect><path fill="#272727" d="M398.83 103.46h-35.15V32.21h35.15v8.08h-26.12v15.2h20.58v8.07h-20.58v31.83h26.12z"></path><rect width="35.15" height="71.25" x="-17.57" y="-35.63" fill="none" rx="0" ry="0" transform="translate(381.75 68.33)"></rect><path fill="#aaa" d="M254.71 93.85q-5.39 0-10.14-2.03-4.75-2.02-8.33-5.58t-5.61-8.28q-2.03-4.72-2.03-10.11t2.03-10.11q2.03-4.72 5.61-8.28 3.58-3.55 8.33-5.58 4.75-2.03 10.14-2.03 5.45 0 10.17 2.03t8.3 5.58q3.59 3.56 5.61 8.28 2.03 4.72 2.03 10.11t-2.03 10.11q-2.02 4.72-5.61 8.28-3.58 3.56-8.3 5.58-4.72 2.03-10.17 2.03m0-6q5.5 0 9.95-2.69 4.44-2.7 7.02-7.25 2.59-4.56 2.59-10.06 0-5.55-2.59-10.08-2.58-4.53-7.02-7.22-4.45-2.7-9.95-2.7-5.5 0-9.92 2.7-4.41 2.69-7.02 7.22-2.61 4.53-2.61 10.08 0 5.5 2.61 10.06 2.61 4.55 7.02 7.25 4.42 2.69 9.92 2.69"></path><rect width="52.22" height="52" x="-26.11" y="-26" fill="none" rx="0" ry="0" transform="translate(255.21 68.35)"></rect><path fill="#aaa" d="M309.78 48.52h-13.33v-5.67h33v5.67h-13.33v44.33h-6.34z"></path><rect width="33" height="50" x="-16.5" y="-25" fill="none" rx="0" ry="0" transform="translate(313.45 68.35)"></rect><path fill="#272727" d="M76.891 47.768c-1.462.399-1.196-10.102-1.196-10.102s-.344-11.914-2.15-17.998c-1.347-8.42-15.068-18.34-31.792-18.34-16.689 0-30.38 9.874-31.787 18.278-1.819 6.07-2.167 18.06-2.167 18.06s.165 6.425-.467 9.034c-.176.724-.411 1.157-.73 1.07-1.464-.4-2.658 3.192-2.394 5.051.268 1.862 1.728 12.628 2.79 15.686 1.067 3.062 4.258 3.062 4.658 4.386.397 1.332 2.391 11.434 2.391 11.434s6.514 11.169 11.831 17.285c5.323 6.113 13.03 5.184 13.03 5.184h5.68s1.934.232 4.54-.307c-7.899 3.705-23.936 2.96-28.48-2.267a53.517 53.517 0 0 1-1.809-2.215c-.952 2.233-2.022 4.447-2.79 5.217-1.026 1.027-4.848 3.792-8.223 6.291 5.49 12.676 17.615 20.152 33.009 20.157 15.55 0 26.043-7.688 31.19-22.846-2.105-1.565-3.922-2.941-4.583-3.602-1.083-1.086-3.515-7.21-5.192-11.672 3.852-5.501 7.197-11.226 7.197-11.226s1.992-10.102 2.394-11.434c.397-1.325 3.588-1.325 4.653-4.387 1.065-3.057 2.526-13.825 2.792-15.685.263-1.861-.931-5.45-2.395-5.052"></path></svg></svg>